<svg xmlns="http://www.w3.org/2000/svg" xmlns:xlink="http://www.w3.org/1999/xlink" width="77" height="136" viewBox="0 0 77 136"><defs><path id="6ymaa" d="M411.25 1233.96c-5.15-2.86-10.63-5.04-16.05-7.3a35.97 35.97 0 0 1-8.8-4.97c-5.24-4.2-4.23-11.01 1.9-13.71 1.73-.76 3.54-1 5.39-1.12 7.1-.38 13.85.93 20.27 4.04 3.2 1.55 4.26 1.06 5.34-2.3 1.14-3.54 2.09-7.14 3.14-10.7.7-2.4-.16-3.99-2.4-5a51.32 51.32 0 0 0-12.8-3.84c-5.8-.9-5.8-.93-5.83-6.79-.03-8.26-.03-8.26-8.27-8.26-1.19 0-2.38-.03-3.57 0-3.85.11-4.5.8-4.61 4.7-.06 1.74 0 3.48-.03 5.25-.03 5.18-.05 5.1-4.99 6.9-11.92 4.36-19.3 12.54-20.08 25.63-.7 11.58 5.31 19.4 14.77 25.1 5.83 3.52 12.28 5.6 18.46 8.35a27.38 27.38 0 0 1 6.72 3.98c5.94 4.93 4.85 13.14-2.2 16.25a21.99 21.99 0 0 1-11.84 1.55 52.64 52.64 0 0 1-18.05-5.43c-3.34-1.74-4.31-1.28-5.45 2.35a288.7 288.7 0 0 0-2.71 9.46c-1.17 4.25-.73 5.26 3.3 7.25 5.16 2.5 10.66 3.79 16.27 4.69 4.4.7 4.53.9 4.58 5.48.03 2.07.03 4.17.05 6.24.03 2.62 1.28 4.15 3.96 4.2 3.04.06 6.1.06 9.14-.03 2.49-.05 3.76-1.41 3.76-3.95 0-2.83.14-5.7.03-8.53-.13-2.9 1.11-4.36 3.88-5.13a30.62 30.62 0 0 0 15.96-10.3c11.6-14.18 7.19-34.93-9.24-44.06z"/></defs><g><g opacity=".15" transform="translate(-357 -1172)"><use fill="#fff" xlink:href="#6ymaa"/></g></g></svg>