<svg xmlns="http://www.w3.org/2000/svg" xmlns:xlink="http://www.w3.org/1999/xlink" width="30" height="53" viewBox="0 0 30 53"><defs><path id="g1o7a" d="M641.2 1308.26c-1.88-1.06-3.9-1.87-5.89-2.71a13.2 13.2 0 0 1-3.24-1.85c-1.92-1.55-1.55-4.08.7-5.09.64-.28 1.3-.37 1.98-.41 2.61-.14 5.1.34 7.46 1.5 1.17.57 1.56.4 1.96-.85.42-1.32.77-2.65 1.16-3.98.25-.9-.06-1.48-.9-1.85a18.74 18.74 0 0 0-4.7-1.43c-2.13-.33-2.13-.34-2.14-2.52 0-3.07 0-3.07-3.04-3.07h-1.31c-1.42.04-1.66.3-1.7 1.74-.02.65 0 1.3 0 1.96-.02 1.92-.03 1.89-1.84 2.56-4.38 1.62-7.1 4.65-7.38 9.51-.26 4.3 1.95 7.2 5.43 9.32 2.14 1.3 4.51 2.08 6.78 3.1.89.4 1.74.85 2.47 1.48 2.19 1.83 1.79 4.87-.8 6.03a8.02 8.02 0 0 1-4.36.57c-2.32-.29-4.54-.9-6.63-2-1.23-.66-1.59-.48-2 .86-.37 1.16-.69 2.34-1 3.51-.43 1.58-.27 1.96 1.21 2.7 1.9.93 3.92 1.4 5.98 1.74 1.61.26 1.66.33 1.68 2.03l.02 2.32c.01.97.47 1.54 1.46 1.56 1.12.02 2.24.02 3.36-.01.91-.02 1.38-.53 1.38-1.47 0-1.05.05-2.12.01-3.17-.05-1.07.41-1.62 1.43-1.9a11.25 11.25 0 0 0 5.87-3.83c4.26-5.26 2.64-12.96-3.4-16.35z"/></defs><g><g opacity=".15" transform="translate(-620 -1284)"><use fill="#fff" xlink:href="#g1o7a"/></g></g></svg>