<svg xmlns="http://www.w3.org/2000/svg" xmlns:xlink="http://www.w3.org/1999/xlink" width="43" height="32" viewBox="0 0 43 32"><defs><path id="ecqta" d="M57 257c0 .9-.72 1.63-1.62 1.63H18.62c-.9 0-1.62-.73-1.62-1.63 0-.9.72-1.63 1.62-1.63h36.76c.9 0 1.62.73 1.62 1.63zm0-12.37c0 .9-.72 1.63-1.62 1.63H18.62c-.9 0-1.62-.73-1.62-1.63 0-.9.72-1.63 1.62-1.63h36.76c.9 0 1.62.73 1.62 1.63zm0 24.74c0 .9-.72 1.63-1.62 1.63H18.62c-.9 0-1.62-.73-1.62-1.63 0-.9.72-1.63 1.62-1.63h36.76c.9 0 1.62.73 1.62 1.63z"/></defs><g><g transform="translate(-15 -241)"><use fill="#fff" xlink:href="#ecqta"/></g></g></svg>