<svg xmlns="http://www.w3.org/2000/svg" xmlns:xlink="http://www.w3.org/1999/xlink" width="21" height="21" viewBox="0 0 21 21"><defs><path id="d9nda" d="M178.62 1832.7c.34-.34.46-.84.31-1.3-.14-.47-.52-.8-.98-.87l-4.11-.62a.54.54 0 0 1-.4-.31l-1.85-3.9a1.2 1.2 0 0 0-1.09-.7c-.47 0-.89.27-1.1.7l-1.83 3.9a.54.54 0 0 1-.4.3l-4.12.63c-.46.07-.84.4-.98.87-.15.46-.03.96.3 1.3l2.98 3.03c.13.13.19.32.16.5l-.7 4.27c-.07.38.03.75.26 1.04.36.45 1 .58 1.5.3l3.68-2.01a.53.53 0 0 1 .5 0l3.68 2.02a1.2 1.2 0 0 0 1.5-.31c.23-.3.33-.66.27-1.04l-.7-4.27a.58.58 0 0 1 .15-.5z"/></defs><g><g transform="translate(-160 -1823)"><use fill="#5ba1d1" xlink:href="#d9nda"/></g></g></svg>