<svg xmlns="http://www.w3.org/2000/svg" xmlns:xlink="http://www.w3.org/1999/xlink" width="21" height="21" viewBox="0 0 21 21"><defs><path id="mvl9a" d="M220.65 2245.73a.58.58 0 0 0-.16.5l.7 4.28c.09.48-.1.96-.48 1.24a1.18 1.18 0 0 1-1.28.1l-3.68-2.02a.52.52 0 0 0-.5 0l-3.68 2.02c-.41.23-.9.19-1.28-.1a1.29 1.29 0 0 1-.49-1.24l.7-4.28a.58.58 0 0 0-.15-.5l-2.98-3.03a1.3 1.3 0 0 1-.3-1.3c.14-.47.52-.8.98-.87l4.11-.62a.54.54 0 0 0 .4-.3l1.85-3.9c.2-.44.62-.71 1.09-.71.47 0 .89.27 1.1.7l1.83 3.9c.08.17.23.28.4.3l4.12.63c.46.07.84.4.98.87.15.46.03.96-.3 1.3zm-.48-.5l2.98-3.04c.15-.15.2-.36.14-.57a.53.53 0 0 0-.44-.38l-4.11-.63c-.4-.06-.74-.32-.92-.7l-1.84-3.89a.53.53 0 0 0-.96 0l-1.84 3.9c-.18.37-.52.63-.92.7l-4.11.62a.53.53 0 0 0-.44.38c-.06.2-.01.42.14.57l2.98 3.03c.28.3.41.72.35 1.13l-.7 4.28c-.04.21.04.42.2.55.18.13.39.14.57.04l3.68-2.02a1.18 1.18 0 0 1 1.14 0l3.68 2.02c.18.1.4.09.56-.04a.56.56 0 0 0 .22-.55l-.7-4.28a1.3 1.3 0 0 1 .34-1.13z"/></defs><g><g opacity=".5" transform="translate(-205 -2233)"><use fill="#5ba1d1" xlink:href="#mvl9a"/></g></g></svg>